<svg xmlns="http://www.w3.org/2000/svg" viewBox="5 5 60 60">
    <rect x="16" y="16" rx="10" ry="10" width="38" height="38" style="fill:#004f58;stroke:#004f58;stroke-width:8;"/>
    <rect x="19" y="19" rx="4" ry="4" width="32" height="32" style="fill:#b1cbd0;"/>

    <line x1="13" y1="24" x2="8" y2="24" style="stroke:#004f58;stroke-width:4; stroke-linecap:round;"/>
    <line x1="13" y1="35" x2="8" y2="35" style="stroke:#004f58;stroke-width:4; stroke-linecap:round;"/>
    <line x1="13" y1="46" x2="8" y2="46" style="stroke:#004f58;stroke-width:4; stroke-linecap:round;"/>

    <line x1="57" y1="24" x2="62" y2="24" style="stroke:#004f58;stroke-width:4; stroke-linecap:round;"/>
    <line x1="57" y1="35" x2="62" y2="35" style="stroke:#004f58;stroke-width:4; stroke-linecap:round;"/>
    <line x1="57" y1="46" x2="62" y2="46" style="stroke:#004f58;stroke-width:4; stroke-linecap:round;"/>

    <line x1="24" y1="13" x2="24" y2="8" style="stroke:#004f58;stroke-width:4; stroke-linecap:round;"/>
    <line x1="35" y1="13" x2="35" y2="8" style="stroke:#004f58;stroke-width:4; stroke-linecap:round;"/>
    <line x1="46" y1="13" x2="46" y2="8" style="stroke:#004f58;stroke-width:4; stroke-linecap:round;"/>

    <line x1="24" y1="57" x2="24" y2="62" style="stroke:#004f58;stroke-width:4; stroke-linecap:round;"/>
    <line x1="35" y1="57" x2="35" y2="62" style="stroke:#004f58;stroke-width:4; stroke-linecap:round;"/>
    <line x1="46" y1="57" x2="46" y2="62" style="stroke:#004f58;stroke-width:4; stroke-linecap:round;"/>

    <text x="19.5" y="43" font-family="Verdana" font-size="22" fill="#004f58">SV</text>
</svg>
